<svg xmlns="http://www.w3.org/2000/svg" viewBox="0 0 292.84 46.25"><g id="Слой_2" data-name="Слой 2"><path d="M31.93 10.87a.9.9 0 01.13 1.47L4 43.51h27.1a1.09 1.09 0 01.77.29.94.94 0 01.32.73 1.06 1.06 0 01-.32.77 1.07 1.07 0 01-.77.32H1.59a.89.89 0 01-1-.64 1 1 0 01.13-1.15l29.7-32.9a.93.93 0 01.77-.32 1 1 0 01.74.26zm.77-9.41a1 1 0 01-.13 1.15L3.39 35a1.2 1.2 0 01-.84.38 1.41 1.41 0 01-.7-.32 1.15 1.15 0 01-.35-.74.88.88 0 01.29-.73L29.37 2.93H2.3a.9.9 0 01-1-1 1.12 1.12 0 01.29-.77A1 1 0 012.3.82h29.44a.89.89 0 01.96.64zm-15.3 7H6.71q-1.08 0-1.08-1a1.11 1.11 0 01.28-.77 1 1 0 01.8-.32H17.4a1.09 1.09 0 011.09 1.09 1 1 0 01-.32.73 1.12 1.12 0 01-.77.31zM13 37.88h14.45a1.13 1.13 0 01.77.28 1 1 0 01.32.74 1 1 0 01-.32.8 1.13 1.13 0 01-.77.29H13a1.12 1.12 0 01-.77-.29 1 1 0 01-.32-.8.94.94 0 01.32-.74 1.11 1.11 0 01.77-.28zm18.43-.07a1 1 0 01.64.55 1.3 1.3 0 01.06.92 1 1 0 01-1.09.77 1.54 1.54 0 01-1-.61 1 1 0 01-.12-.86v-.06a1.09 1.09 0 011.08-.77 1 1 0 01.42.06zm8.69 7.75q-1.27-.39-1-1.41L54.91 1.84a1.07 1.07 0 011-.7h.9a1.08 1.08 0 011 .7l7.62 23.24a1.13 1.13 0 01-.07.83 1 1 0 01-.64.51.28.28 0 00-.16 0h-.16a1.06 1.06 0 01-1-.76L56.31 4.08 41.15 44.92a1.09 1.09 0 01-1.03.64zm6 .12a1.53 1.53 0 01-1-.6 1.16 1.16 0 01-.13-.93 1.11 1.11 0 011.09-.83.47.47 0 01.19 0 .47.47 0 00.19 0 1.2 1.2 0 01.64.61 1.22 1.22 0 01.07.86v.07a1.12 1.12 0 01-1.03.82zm1.15-3.52c-.85-.25-1.17-.72-1-1.4l8.9-26.24a1.14 1.14 0 011-.71.47.47 0 01.19 0 .22.22 0 00.13 0 .94.94 0 01.64.54 1 1 0 01.06.8l-9 26.24a1.05 1.05 0 01-.9.77zm22.23-.06a.89.89 0 01-1-.7l-1.6-4.8H54.2a.94.94 0 01-.73-.32 1.09 1.09 0 01-.29-.77.91.91 0 011-1h13.53a1.07 1.07 0 011 .71l1.79 5.57a.92.92 0 01-.06.76 1 1 0 01-.64.52zm6.85 3.46a1.08 1.08 0 01-1-.64L70.2 31H56a1 1 0 01-.8-.32 1.08 1.08 0 01-.28-.76c0-.69.36-1 1.08-1h15a1 1 0 011 .58l5.38 14.72a.94.94 0 01-.64 1.34zm-7-19.14a1.07 1.07 0 01-1-.7L61.88 6.07a1 1 0 01.64-1.35.76.76 0 01.32-.06 1 1 0 011 .7L70.33 25a1.17 1.17 0 01-.06.83 1 1 0 01-.64.52zM85 39.6a.9.9 0 01-1-1V1.52a.9.9 0 011-1q1.08 0 1.08 1v36h17a1 1 0 01.8.32 1.13 1.13 0 01.28.77q0 1-1.08 1zm4.72-32.32a.9.9 0 011-1 1.11 1.11 0 01.76.29.92.92 0 01.32.73v26.16a.94.94 0 01-.32.74 1.1 1.1 0 01-.76.28.9.9 0 01-1-1zm.07 36.8a1 1 0 01.31-.73 1.13 1.13 0 01.77-.29h15.75a.9.9 0 011 1 1.07 1.07 0 01-.29.77.91.91 0 01-.73.32H90.87a1 1 0 01-.77-.32 1 1 0 01-.31-.75zm16.89-4.35a1.49 1.49 0 01-1-.64 1.14 1.14 0 01-.13-.89v-.07a1.13 1.13 0 011.09-.77.41.41 0 01.19 0 .5.5 0 00.19 0 1 1 0 01.71.57 1.09 1.09 0 010 .9V39a1 1 0 01-1.05.73zm10.43-18.17a1.09 1.09 0 01-1.11-1.09V1.78a1.09 1.09 0 011.11-1.09 1 1 0 01.74.32 1.13 1.13 0 01.29.77v17.66h16.44a1.12 1.12 0 01.77.29.93.93 0 01.32.74 1 1 0 01-.32.77 1.06 1.06 0 01-.77.32zm0 24.19a1.07 1.07 0 01-.77-.32 1.06 1.06 0 01-.32-.77V26.1a1.09 1.09 0 011.09-1.1h17.47a1.06 1.06 0 01.77.32 1 1 0 01.32.77.94.94 0 01-.32.74 1.11 1.11 0 01-.77.28h-16.44v16.53h22.2a.9.9 0 011 1 1.12 1.12 0 01-.29.77 1 1 0 01-.74.32zM122.36 3a1 1 0 01-.74-.32 1.13 1.13 0 01-.28-.77.91.91 0 011-1h18a1.12 1.12 0 01.77.29.93.93 0 01.32.74 1 1 0 01-.32.77 1.06 1.06 0 01-.77.32zm17.86 3.45a1.11 1.11 0 011.09 1.09 1 1 0 01-.33.74 1.1 1.1 0 01-.76.28h-16.58v7.17a1.09 1.09 0 01-1.09 1.09.94.94 0 01-.73-.32 1.07 1.07 0 01-.29-.77V7.54a1.09 1.09 0 01.29-.77.94.94 0 01.73-.32zm-17.67 23.11a1.11 1.11 0 01.77.28 1 1 0 01.32.8v7.56h12.8a1 1 0 01.77.32 1.05 1.05 0 01.32.76 1 1 0 01-.32.74 1.13 1.13 0 01-.77.29h-13.89a.9.9 0 01-1-1v-8.67q-.02-1.08 1-1.08zm17.86 8.57a1 1 0 01.64.55 1.16 1.16 0 01.06.86v.06a1.1 1.1 0 01-1.09.77 1.56 1.56 0 01-1-.61 1.12 1.12 0 01-.12-.92 1.09 1.09 0 011.08-.77 1 1 0 01.43.06zm24.38 7.62a.9.9 0 01-1-1V2a.94.94 0 01.77-1 .27.27 0 00.12 0 .38.38 0 01.13 0 1 1 0 01.9.52l26.37 42.75a1 1 0 01-.32 1.47 1.93 1.93 0 01-.58.13 1 1 0 01-.9-.51l-24.4-39.68v39a1 1 0 01-.32.74 1.12 1.12 0 01-.77.33zm6.72-4.23c0 .69-.36 1-1.09 1a.9.9 0 01-1-1V23.41c0-.72.34-1.09 1-1.09a1 1 0 011.09 1.09zm1.6-35.9a.94.94 0 01.32-1.47A1 1 0 01174 4a.94.94 0 01.89.45l15.24 24.25V2a1.13 1.13 0 01.28-.77 1 1 0 01.74-.32 1.09 1.09 0 011.1 1.09v30.4a1 1 0 01-.77 1 1.42 1.42 0 01-1.22-.45zm23.36-2.56a1 1 0 01-.7-.58 1.3 1.3 0 01-.07-.89h.07a1 1 0 011.09-.83.3.3 0 01.16 0h.16a1.09 1.09 0 01.76 1.47l-.06.07a1 1 0 01-1.09.76zm.32 1.41a1 1 0 01.8.32 1.12 1.12 0 01.29.77v39.16c0 .69-.36 1-1.09 1a.9.9 0 01-1-1V5.56a1.07 1.07 0 01.29-.77.94.94 0 01.71-.32zM212.47 41V24.37h-4.8a.9.9 0 01-1-1V1.91a1.11 1.11 0 01.28-.77 1 1 0 01.74-.32 1.07 1.07 0 01.77.32 1.06 1.06 0 01.32.77v20.35h4.74a1.05 1.05 0 01.76.32 1 1 0 01.32.77V41a.91.91 0 01-.32.73 1.06 1.06 0 01-.76.29.9.9 0 01-1.05-1.02zm-5.76-11.84a.91.91 0 011-1c.73 0 1.09.35 1.09 1V44.6c0 .68-.36 1-1.09 1a.9.9 0 01-1-1zm6.4 16.51a1 1 0 01-.64-.58 1.25 1.25 0 01-.06-.89v-.07a1.1 1.1 0 011.09-.76.5.5 0 01.19 0 .44.44 0 00.19 0 1 1 0 01.7.58 1.06 1.06 0 010 .89v.07a1 1 0 01-1.08.76zm1.47-28a.93.93 0 01-.32.74 1.11 1.11 0 01-.76.29.91.91 0 01-1-1v-11a1.11 1.11 0 01.29-.76.93.93 0 01.74-.32 1.09 1.09 0 011.08 1.08zm10.31 28.08a.91.91 0 01-1-1V2a1 1 0 01.77-1 .31.31 0 00.13 0 .28.28 0 01.13 0 1 1 0 01.89.52l26.37 42.75a.94.94 0 01-.32 1.47 1.93 1.93 0 01-.58.13 1 1 0 01-.89-.51L226 5.68v39a.93.93 0 01-.32.74 1.11 1.11 0 01-.79.33zm6.72-4.23c0 .69-.37 1-1.09 1a.91.91 0 01-1-1V23.41c0-.72.35-1.09 1-1.09a1 1 0 011.09 1.09zm1.6-35.9a.93.93 0 01.32-1.47 1 1 0 01.57-.15 1 1 0 01.9.45l15.23 24.25V2a1.13 1.13 0 01.29-.77 1 1 0 01.73-.32 1.06 1.06 0 01.77.32 1 1 0 01.32.77v30.4a.94.94 0 01-.77 1 1.4 1.4 0 01-1.21-.45zm23.36-2.56a1 1 0 01-.71-.58 1.25 1.25 0 01-.06-.89h.06A1 1 0 01257 .76h.32a1.1 1.1 0 01.68 1.53l-.07.07a1 1 0 01-1.08.76zm.32 1.41a1 1 0 01.8.32 1.11 1.11 0 01.28.77v39.16c0 .69-.36 1-1.08 1a.91.91 0 01-1-1V5.56a1.12 1.12 0 01.29-.77 1 1 0 01.71-.32zM268 21.56a1.09 1.09 0 01-1.09-1.09V1.78A1.09 1.09 0 01268 .69a1 1 0 01.74.32 1.13 1.13 0 01.29.77v17.66h16.44a1.12 1.12 0 01.77.29 1 1 0 01.32.74 1.07 1.07 0 01-.32.77 1.06 1.06 0 01-.77.32zm0 24.19a1.07 1.07 0 01-.77-.32 1.06 1.06 0 01-.32-.77V26.1A1.09 1.09 0 01268 25h17.47a1.06 1.06 0 01.77.32 1.07 1.07 0 01.32.77 1 1 0 01-.32.74 1.11 1.11 0 01-.77.28h-16.42v16.53h22.2a.9.9 0 011 1 1.12 1.12 0 01-.29.77 1 1 0 01-.74.32zM273.27 3a1 1 0 01-.74-.32 1.13 1.13 0 01-.28-.77.91.91 0 011-1h18a1.12 1.12 0 01.77.29 1 1 0 01.32.74 1.07 1.07 0 01-.32.77 1.06 1.06 0 01-.77.32zm17.86 3.45a1.05 1.05 0 01.76.32 1 1 0 01.32.77.94.94 0 01-.32.74 1.1 1.1 0 01-.76.28h-16.58v7.17a1.09 1.09 0 01-1.09 1.09.94.94 0 01-.73-.32 1.07 1.07 0 01-.29-.77V7.54a1.09 1.09 0 01.29-.77.94.94 0 01.73-.32zm-17.67 23.11a1.11 1.11 0 01.77.28 1 1 0 01.32.8v7.56h12.8a1 1 0 01.77.32 1.05 1.05 0 01.32.76 1 1 0 01-.32.74 1.13 1.13 0 01-.77.29h-13.89a.9.9 0 01-1-1v-8.67q-.02-1.08 1-1.08zm17.86 8.57a1 1 0 01.64.55 1.16 1.16 0 01.06.86v.06a1.1 1.1 0 01-1.09.77 1.54 1.54 0 01-1-.61 1.12 1.12 0 01-.12-.92 1.09 1.09 0 011.08-.77 1 1 0 01.43.06z" fill="none" stroke="#1c1c1a" stroke-miterlimit="10" id="Слой_1-2" data-name="Слой 1"/></g></svg>