<svg height="512pt" viewBox="0 -38 512.001 512" width="512pt" xmlns="http://www.w3.org/2000/svg"><g fill-rule="evenodd"><path d="M103.102 344.504a176.316 176.316 0 01-23.66-88.36H9.964c-.008 42.106 10.789 84.528 32.965 122.938 9.547 16.617 30.758 22.348 47.375 12.797 16.617-9.547 22.347-30.758 12.797-47.375zm0 0" fill="#00c9af"/><path d="M432.559 256.148a176.313 176.313 0 01-23.66 88.356c-9.551 16.617-3.82 37.828 12.796 47.375 16.618 9.55 37.828 3.82 47.375-12.793 22.176-38.414 32.977-80.832 32.965-122.938zm0 0" fill="#fd4848"/><path d="M80.96 233.059a175.75 175.75 0 0122.188-65.164l-60.293-34.81c-16.25 28.208-26.593 59.177-30.78 90.99a245.7 245.7 0 00-2.106 32.07H79.44a177.44 177.44 0 011.52-23.086zm0 0" fill="#8ae7d3"/><path d="M42.855 133.086l60.29 34.809c7.59-13.098 16.972-25.391 28.09-36.512 11.171-11.168 23.468-20.528 36.523-28.078l-34.86-60.375c-18.21 10.527-35.363 23.586-50.945 39.168a244.894 244.894 0 00-39.098 50.988zm0 0" fill="#ffd777"/><path d="M132.898 42.93l34.86 60.375c27.21-15.73 57.726-23.598 88.242-23.598V10.004c-42.566 0-85.137 10.973-123.102 32.926zM256 10.004v69.703c14.668 0 29.336 1.816 43.637 5.453l4.066 1.086a175.233 175.233 0 0140.54 17.059l34.859-60.375C341.14 20.977 298.57 10.004 256 10.004zm0 0" fill="#ffba4a"/><path d="M379.102 42.93l-34.86 60.375c13.059 7.547 25.352 16.906 36.524 28.078a177.402 177.402 0 0128.09 36.512l60.292-34.81a244.913 244.913 0 00-39.101-50.987c-15.582-15.582-32.73-28.637-50.945-39.168zm0 0" fill="#ff8244"/><path d="M469.148 133.086l-60.293 34.809a175.75 175.75 0 0122.188 65.164 178.128 178.128 0 011.52 23.086h69.472a245.7 245.7 0 00-2.105-32.07c-4.188-31.813-14.535-62.778-30.782-90.99zm0 0" fill="#ff8244"/><path d="M250.898 275.27l48.575 7.937 147.28 24.063-139.597-52.805-46.02-17.41c-10.175-3.848-21.413 3.484-24.226 13.988-2.816 10.504 3.254 22.473 13.988 24.227zm0 0" fill="gray"/><path d="M299.473 283.203l-48.575-7.933c-10.734-1.758-16.804-13.723-13.988-24.227 2.813-10.508 14.05-17.836 24.227-13.988l46.02 17.41c-.415-12.528-5.4-24.926-14.958-34.488-19.984-19.985-52.383-19.985-72.367 0-19.984 19.984-19.984 52.382 0 72.367s52.383 19.984 72.367 0a51.205 51.205 0 007.274-9.14zm0 0" fill="#e6e6e6"/><path d="M195.992 364.496h120.016V396.5H195.992zm0 0" fill="#8ae7d3"/></g><path d="M81.953 92.098a9.968 9.968 0 007.07-2.93.561.561 0 00.059-.055c3.902-3.851 3.977-10.136.148-14.082-3.847-3.96-10.18-4.058-14.144-.21-.043.042-.172.167-.215.214-3.894 3.906-3.894 10.23.008 14.133a9.967 9.967 0 007.074 2.93zm0 0"/><path d="M509.844 222.77c-7.332-55.711-33.16-108.18-72.723-147.743C388.738 26.645 324.418 0 256 0c-53.469 0-104.66 16.277-148.043 47.07-4.504 3.2-5.562 9.442-2.367 13.946 3.195 4.504 9.437 5.562 13.945 2.367 3.227-2.29 6.5-4.485 9.817-6.598l24.875 43.086a188.19 188.19 0 00-30.063 24.438 186.635 186.635 0 00-24.379 30.093L56.7 129.532A234.068 234.068 0 0171.312 109c3.438-4.32 2.727-10.613-1.593-14.055-4.324-3.441-10.614-2.726-14.055 1.59-28.91 36.3-47.414 79.95-53.508 126.23-7.308 55.505 4.098 112.794 32.102 161.298 5.949 10.355 15.574 17.769 27.101 20.882a44.819 44.819 0 0011.73 1.567c7.716 0 15.333-2.016 22.2-5.961 10.356-5.953 17.77-15.574 20.883-27.102 3.113-11.531 1.555-23.578-4.406-33.949-18.5-32.047-25.727-68.402-20.891-105.137 4.809-36.523 21.21-69.687 47.434-95.91C169.746 107.016 211.543 89.707 256 89.707c44.46 0 86.262 17.309 117.695 48.746 26.223 26.219 42.621 59.387 47.434 95.91 2.312 17.575 1.86 35.063-1.266 52.04l-103.328-39.087a60.895 60.895 0 00-17.262-34.414c-23.851-23.851-62.66-23.851-86.511 0-23.852 23.852-23.852 62.664 0 86.516 11.925 11.926 27.59 17.887 43.254 17.887 15.668 0 31.332-5.961 43.257-17.89a61.364 61.364 0 004.747-5.333l109 17.809a168.42 168.42 0 01-12.793 27.625c-12.278 21.375-4.883 48.754 16.488 61.03 10.351 5.954 22.402 7.513 33.93 4.4 11.527-3.114 21.152-10.532 27.09-20.864 28.011-48.52 39.417-105.812 32.109-161.312zM94.434 349.484c3.285 5.723 4.148 12.38 2.43 18.75-1.723 6.368-5.821 11.688-11.54 14.973-5.722 3.29-12.379 4.152-18.75 2.434-6.367-1.723-11.687-5.82-14.984-11.559-19.305-33.437-29.93-70.16-31.457-107.934H69.75c1.598 29.2 10.016 57.934 24.684 83.336zm-23.387-117.73a183.679 183.679 0 00-1.317 14.39H20.172c.305-6.906.902-13.828 1.816-20.765a237.13 237.13 0 0124.73-78.512l43.055 24.856c-9.562 18.77-15.972 39.105-18.726 60.03zm155.855 53.52c-16.05-16.051-16.05-42.172 0-58.223 16.055-16.055 42.172-16.051 58.227 0a41.058 41.058 0 018.074 11.445l-28.527-10.793c-7.067-2.672-14.813-2.172-21.813 1.418-7.57 3.879-13.41 11.11-15.613 19.336-2.203 8.223-.762 17.398 3.855 24.547 4.27 6.605 10.723 10.918 18.18 12.137l30.09 4.914c-16.031 11.058-38.215 9.472-52.473-4.782zm74.188-11.938c-.027-.004-.055-.008-.082-.016l-48.496-7.922c-2.317-.378-3.782-1.976-4.606-3.246-1.578-2.445-2.09-5.71-1.336-8.523.754-2.813 2.828-5.383 5.418-6.711.895-.457 2.11-.898 3.469-.898.684 0 1.406.113 2.14.39l45.833 17.336c.093.04.191.074.289.11l46.11 17.44zM266 69.973V20.227c35.133 1.453 68.887 10.558 99.352 26.511L340.469 89.84C317.519 78.156 292.266 71.352 266 69.973zM146.656 46.75c30.625-16.047 64.36-25.086 99.344-26.535v49.758c-26.266 1.379-51.52 8.183-74.469 19.867zm211.117 53.121l24.891-43.11a238.094 238.094 0 0140.313 32.407c12.375 12.375 23.195 25.887 32.382 40.328l-43.14 24.91a186.518 186.518 0 00-24.383-30.097 188.19 188.19 0 00-30.063-24.438zm64.454 71.852l43.14-24.907c12.63 24.235 20.977 50.68 24.649 78.563a243.02 243.02 0 011.816 20.766h-49.559a185.582 185.582 0 00-1.316-14.391c-2.754-20.926-9.164-41.262-18.73-60.031zm38.171 202.375c-3.285 5.722-8.605 9.82-14.972 11.539-6.367 1.718-13.028.86-18.746-2.43-11.809-6.785-15.899-21.914-9.121-33.703a185.391 185.391 0 0015.394-34.356l12.188 1.993a9.97 9.97 0 001.62.132c4.454 0 8.466-2.984 9.653-7.414a10.002 10.002 0 00-6.121-11.945l-11.578-4.375a188.878 188.878 0 003.539-27.39h49.613c-1.527 37.777-12.152 74.5-31.469 107.949zm0 0"/><path d="M316.008 354.496H195.992c-5.523 0-10 4.477-10 10V396.5c0 5.523 4.477 10 10 10h120.016c5.523 0 10.004-4.477 10.004-10v-32.004c0-5.523-4.48-10-10.004-10zm-10 32.004H205.996v-12.004h100.012zM108.176 246.145c-5.524 0-10 4.476-10 10 0 5.523 4.476 10 10 10h.238c5.523 0 10-4.477 10-10 0-5.524-4.477-10-10-10zm82.707-122.809l-.117-.207c-2.766-4.781-8.883-6.422-13.664-3.656-4.782 2.761-6.422 8.879-3.657 13.664l.118.203a9.997 9.997 0 0013.66 3.66 10.003 10.003 0 003.66-13.664zM329.8 138.36a9.992 9.992 0 008.669-5l.117-.208c2.766-4.78 1.125-10.898-3.656-13.664-4.782-2.761-10.899-1.125-13.664 3.66l-.118.207c-2.761 4.782-1.125 10.899 3.66 13.66a9.944 9.944 0 004.993 1.344zm74.024 127.82c5.524 0 10-4.477 10-10 0-5.524-4.476-10.004-10-10.004h-.234c-5.524 0-10.004 4.48-10.004 10.004 0 5.523 4.48 10 10.004 10zM221.23 416.504h-.234c-5.523 0-10 4.476-10 10 0 5.523 4.477 10 10 10h.234c5.524 0 10.004-4.477 10.004-10 0-5.524-4.48-10-10.004-10zm69.778 0h-41.043c-5.52 0-10 4.48-10 10.004 0 5.523 4.48 10 10 10h41.043c5.52 0 10-4.477 10-10 0-5.524-4.477-10.004-10-10.004zm0 0"/></svg>