<svg xmlns="http://www.w3.org/2000/svg" viewBox="0 0 292.84 46.25"><defs><style>.cls-1{fill:none;stroke:#1c1c1a;stroke-miterlimit:10;}</style></defs><g id="Слой_2" data-name="Слой 2"><g id="Слой_1-2" data-name="Слой 1"><path class="cls-1" d="M31.93,10.87a.9.9,0,0,1,.13,1.47L4,43.51H31.1a1.09,1.09,0,0,1,.77.29.94.94,0,0,1,.32.73,1.06,1.06,0,0,1-.32.77,1.07,1.07,0,0,1-.77.32H1.59a.89.89,0,0,1-1-.64,1,1,0,0,1,.13-1.15l29.7-32.9a.93.93,0,0,1,.77-.32A1,1,0,0,1,31.93,10.87Zm.77-9.41a1,1,0,0,1-.13,1.15L3.39,35a1.2,1.2,0,0,1-.84.38,1.41,1.41,0,0,1-.7-.32,1.15,1.15,0,0,1-.35-.74.88.88,0,0,1,.29-.73L29.37,2.93H2.3a.9.9,0,0,1-1-1,1.12,1.12,0,0,1,.29-.77A1,1,0,0,1,2.3.82H31.74A.89.89,0,0,1,32.7,1.46Zm-15.3,7H6.71q-1.08,0-1.08-1a1.11,1.11,0,0,1,.28-.77,1,1,0,0,1,.8-.32H17.4a1.09,1.09,0,0,1,1.09,1.09,1,1,0,0,1-.32.73A1.12,1.12,0,0,1,17.4,8.5ZM13,37.88H27.45a1.13,1.13,0,0,1,.77.28,1,1,0,0,1,.32.74,1,1,0,0,1-.32.8,1.13,1.13,0,0,1-.77.29H13a1.12,1.12,0,0,1-.77-.29,1,1,0,0,1-.32-.8.94.94,0,0,1,.32-.74A1.11,1.11,0,0,1,13,37.88Zm18.43-.07a1,1,0,0,1,.64.55,1.3,1.3,0,0,1,.06.92,1,1,0,0,1-1.09.77,1.54,1.54,0,0,1-1-.61,1,1,0,0,1-.12-.86v-.06A1.09,1.09,0,0,1,31,37.75,1,1,0,0,1,31.42,37.81Z"/><path class="cls-1" d="M40.12,45.56q-1.27-.39-1-1.41L54.91,1.84a1.07,1.07,0,0,1,1-.7h.9a1.08,1.08,0,0,1,1,.7l7.62,23.24a1.13,1.13,0,0,1-.07.83,1,1,0,0,1-.64.51.28.28,0,0,0-.16,0s-.07,0-.16,0a1.06,1.06,0,0,1-1-.76L56.31,4.08,41.15,44.92A1.09,1.09,0,0,1,40.12,45.56Zm6,.12a1.53,1.53,0,0,1-1-.6,1.16,1.16,0,0,1-.13-.93,1.11,1.11,0,0,1,1.09-.83.47.47,0,0,1,.19,0,.47.47,0,0,0,.19,0,1.2,1.2,0,0,1,.64.61,1.22,1.22,0,0,1,.07.86v.07A1.12,1.12,0,0,1,46.14,45.68Zm1.15-3.52c-.85-.25-1.17-.72-1-1.4l8.9-26.24a1.14,1.14,0,0,1,1-.71.47.47,0,0,1,.19,0,.22.22,0,0,0,.13,0,.94.94,0,0,1,.64.54,1,1,0,0,1,.06.8l-9,26.24A1.05,1.05,0,0,1,47.29,42.16ZM69.5,42.1a.89.89,0,0,1-1-.7l-1.6-4.8H54.2a.94.94,0,0,1-.73-.32,1.09,1.09,0,0,1-.29-.77.91.91,0,0,1,1-1H67.71a1.07,1.07,0,0,1,1,.71l1.79,5.57a.92.92,0,0,1-.06.76,1,1,0,0,1-.64.52Zm6.85,3.46a1.08,1.08,0,0,1-1-.64L70.2,31H56a1,1,0,0,1-.8-.32,1.08,1.08,0,0,1-.28-.76c0-.69.36-1,1.08-1H71a1,1,0,0,1,1,.58l5.38,14.72a.94.94,0,0,1-.64,1.34Zm-7-19.14a1.07,1.07,0,0,1-1-.7L61.88,6.07a1,1,0,0,1,.64-1.35.76.76,0,0,1,.32-.06,1,1,0,0,1,1,.7L70.33,25a1.17,1.17,0,0,1-.06.83,1,1,0,0,1-.64.52Z"/><path class="cls-1" d="M85,39.6a.9.9,0,0,1-1-1V1.52a.9.9,0,0,1,1-1q1.08,0,1.08,1v36h17a1,1,0,0,1,.8.32,1.13,1.13,0,0,1,.28.77q0,1-1.08,1ZM89.72,7.28a.9.9,0,0,1,1-1,1.11,1.11,0,0,1,.76.29.92.92,0,0,1,.32.73V33.46a.94.94,0,0,1-.32.74,1.1,1.1,0,0,1-.76.28.9.9,0,0,1-1-1Zm.07,36.8a1,1,0,0,1,.31-.73,1.13,1.13,0,0,1,.77-.29h15.75a.9.9,0,0,1,1,1,1.07,1.07,0,0,1-.29.77.91.91,0,0,1-.73.32H90.87a1,1,0,0,1-.77-.32A1,1,0,0,1,89.79,44.08Zm16.89-4.35a1.49,1.49,0,0,1-1-.64,1.14,1.14,0,0,1-.13-.89v-.07a1.13,1.13,0,0,1,1.09-.77.41.41,0,0,1,.19,0,.5.5,0,0,0,.19,0,1,1,0,0,1,.71.57,1.09,1.09,0,0,1,0,.9V39A1,1,0,0,1,106.68,39.73Z"/><path class="cls-1" d="M117.11,21.56A1.09,1.09,0,0,1,116,20.47V1.78A1.09,1.09,0,0,1,117.11.69a1,1,0,0,1,.74.32,1.13,1.13,0,0,1,.29.77V19.44h16.44a1.12,1.12,0,0,1,.77.29.93.93,0,0,1,.32.74,1,1,0,0,1-.32.77,1.06,1.06,0,0,1-.77.32Zm0,24.19a1.07,1.07,0,0,1-.77-.32,1.06,1.06,0,0,1-.32-.77V26.1A1.09,1.09,0,0,1,117.11,25h17.47a1.06,1.06,0,0,1,.77.32,1,1,0,0,1,.32.77.94.94,0,0,1-.32.74,1.11,1.11,0,0,1-.77.28H118.14V43.64h22.2a.9.9,0,0,1,1,1,1.12,1.12,0,0,1-.29.77,1,1,0,0,1-.74.32ZM122.36,3a1,1,0,0,1-.74-.32,1.13,1.13,0,0,1-.28-.77.91.91,0,0,1,1-1h18a1.12,1.12,0,0,1,.77.29.93.93,0,0,1,.32.74,1,1,0,0,1-.32.77,1.06,1.06,0,0,1-.77.32Zm17.86,3.45a1.11,1.11,0,0,1,1.09,1.09,1,1,0,0,1-.33.74,1.1,1.1,0,0,1-.76.28H123.64v7.17a1.09,1.09,0,0,1-1.09,1.09.94.94,0,0,1-.73-.32,1.07,1.07,0,0,1-.29-.77V7.54a1.09,1.09,0,0,1,.29-.77.94.94,0,0,1,.73-.32ZM122.55,29.56a1.11,1.11,0,0,1,.77.28,1,1,0,0,1,.32.8V38.2h12.8a1,1,0,0,1,.77.32,1.05,1.05,0,0,1,.32.76,1,1,0,0,1-.32.74,1.13,1.13,0,0,1-.77.29H122.55a.9.9,0,0,1-1-1V30.64Q121.53,29.56,122.55,29.56Zm17.86,8.57a1,1,0,0,1,.64.55,1.16,1.16,0,0,1,.06.86v.06a1.1,1.1,0,0,1-1.09.77,1.56,1.56,0,0,1-1-.61,1.12,1.12,0,0,1-.12-.92,1.09,1.09,0,0,1,1.08-.77A1,1,0,0,1,140.41,38.13Z"/><path class="cls-1" d="M164.79,45.75a.9.9,0,0,1-1-1V2a.94.94,0,0,1,.77-1,.27.27,0,0,0,.12,0,.38.38,0,0,1,.13,0,1,1,0,0,1,.9.52l26.37,42.75a1,1,0,0,1-.32,1.47,1.93,1.93,0,0,1-.58.13,1,1,0,0,1-.9-.51L165.88,5.68v39a1,1,0,0,1-.32.74A1.12,1.12,0,0,1,164.79,45.75Zm6.72-4.23c0,.69-.36,1-1.09,1a.9.9,0,0,1-1-1V23.41c0-.72.34-1.09,1-1.09a1,1,0,0,1,1.09,1.09Zm1.6-35.9a.94.94,0,0,1,.32-1.47A1,1,0,0,1,174,4a.94.94,0,0,1,.89.45l15.24,24.25V2a1.13,1.13,0,0,1,.28-.77,1,1,0,0,1,.74-.32A1.09,1.09,0,0,1,192.25,2v30.4a1,1,0,0,1-.77,1,1.42,1.42,0,0,1-1.22-.45Zm23.36-2.56a1,1,0,0,1-.7-.58,1.3,1.3,0,0,1-.07-.89h.07a1,1,0,0,1,1.09-.83.3.3,0,0,1,.16,0s.07,0,.16,0a1.09,1.09,0,0,1,.76,1.47l-.06.07a1,1,0,0,1-1.09.76Zm.32,1.41a1,1,0,0,1,.8.32,1.12,1.12,0,0,1,.29.77V44.72c0,.69-.36,1-1.09,1a.9.9,0,0,1-1-1V5.56a1.07,1.07,0,0,1,.29-.77A.94.94,0,0,1,196.79,4.47Z"/><path class="cls-1" d="M212.47,41V24.37h-4.8a.9.9,0,0,1-1-1V1.91a1.11,1.11,0,0,1,.28-.77,1,1,0,0,1,.74-.32,1.07,1.07,0,0,1,.77.32,1.06,1.06,0,0,1,.32.77V22.26h4.74a1.05,1.05,0,0,1,.76.32,1,1,0,0,1,.32.77V41a.91.91,0,0,1-.32.73,1.06,1.06,0,0,1-.76.29A.9.9,0,0,1,212.47,41Zm-5.76-11.84a.91.91,0,0,1,1-1c.73,0,1.09.35,1.09,1V44.6c0,.68-.36,1-1.09,1a.9.9,0,0,1-1-1Zm6.4,16.51a1,1,0,0,1-.64-.58,1.25,1.25,0,0,1-.06-.89v-.07a1.1,1.1,0,0,1,1.09-.76.5.5,0,0,1,.19,0,.44.44,0,0,0,.19,0,1,1,0,0,1,.7.58,1.06,1.06,0,0,1,0,.89v.07a1,1,0,0,1-1.08.76Zm1.47-28a.93.93,0,0,1-.32.74,1.11,1.11,0,0,1-.76.29.91.91,0,0,1-1-1v-11a1.11,1.11,0,0,1,.29-.76.93.93,0,0,1,.74-.32,1.09,1.09,0,0,1,1.08,1.08Z"/><path class="cls-1" d="M224.89,45.75a.91.91,0,0,1-1-1V2a1,1,0,0,1,.77-1,.31.31,0,0,0,.13,0,.28.28,0,0,1,.13,0,1,1,0,0,1,.89.52l26.37,42.75a.94.94,0,0,1-.32,1.47,1.93,1.93,0,0,1-.58.13,1,1,0,0,1-.89-.51L226,5.68v39a.93.93,0,0,1-.32.74A1.11,1.11,0,0,1,224.89,45.75Zm6.72-4.23c0,.69-.37,1-1.09,1a.91.91,0,0,1-1-1V23.41c0-.72.35-1.09,1-1.09a1,1,0,0,1,1.09,1.09Zm1.6-35.9a.93.93,0,0,1,.32-1.47A1,1,0,0,1,234.1,4a1,1,0,0,1,.9.45l15.23,24.25V2a1.13,1.13,0,0,1,.29-.77,1,1,0,0,1,.73-.32,1.06,1.06,0,0,1,.77.32,1,1,0,0,1,.32.77v30.4a.94.94,0,0,1-.77,1,1.4,1.4,0,0,1-1.21-.45Zm23.36-2.56a1,1,0,0,1-.71-.58,1.25,1.25,0,0,1-.06-.89h.06A1,1,0,0,1,257,.76c.09,0,.14,0,.16,0s.07,0,.16,0A1.1,1.1,0,0,1,258,2.29l-.07.07a1,1,0,0,1-1.08.76Zm.32,1.41a1,1,0,0,1,.8.32,1.11,1.11,0,0,1,.28.77V44.72c0,.69-.36,1-1.08,1a.91.91,0,0,1-1-1V5.56a1.12,1.12,0,0,1,.29-.77A1,1,0,0,1,256.89,4.47Z"/><path class="cls-1" d="M268,21.56a1.09,1.09,0,0,1-1.09-1.09V1.78A1.09,1.09,0,0,1,268,.69a1,1,0,0,1,.74.32,1.13,1.13,0,0,1,.29.77V19.44h16.44a1.12,1.12,0,0,1,.77.29,1,1,0,0,1,.32.74,1.07,1.07,0,0,1-.32.77,1.06,1.06,0,0,1-.77.32Zm0,24.19a1.07,1.07,0,0,1-.77-.32,1.06,1.06,0,0,1-.32-.77V26.1A1.09,1.09,0,0,1,268,25h17.47a1.06,1.06,0,0,1,.77.32,1.07,1.07,0,0,1,.32.77,1,1,0,0,1-.32.74,1.11,1.11,0,0,1-.77.28H269.05V43.64h22.2a.9.9,0,0,1,1,1,1.12,1.12,0,0,1-.29.77,1,1,0,0,1-.74.32ZM273.27,3a1,1,0,0,1-.74-.32,1.13,1.13,0,0,1-.28-.77.91.91,0,0,1,1-1h18a1.12,1.12,0,0,1,.77.29,1,1,0,0,1,.32.74,1.07,1.07,0,0,1-.32.77,1.06,1.06,0,0,1-.77.32Zm17.86,3.45a1.05,1.05,0,0,1,.76.32,1,1,0,0,1,.32.77.94.94,0,0,1-.32.74,1.1,1.1,0,0,1-.76.28H274.55v7.17a1.09,1.09,0,0,1-1.09,1.09.94.94,0,0,1-.73-.32,1.07,1.07,0,0,1-.29-.77V7.54a1.09,1.09,0,0,1,.29-.77.94.94,0,0,1,.73-.32ZM273.46,29.56a1.11,1.11,0,0,1,.77.28,1,1,0,0,1,.32.8V38.2h12.8a1,1,0,0,1,.77.32,1.05,1.05,0,0,1,.32.76,1,1,0,0,1-.32.74,1.13,1.13,0,0,1-.77.29H273.46a.9.9,0,0,1-1-1V30.64Q272.44,29.56,273.46,29.56Zm17.86,8.57a1,1,0,0,1,.64.55,1.16,1.16,0,0,1,.06.86v.06a1.1,1.1,0,0,1-1.09.77,1.54,1.54,0,0,1-1-.61,1.12,1.12,0,0,1-.12-.92,1.09,1.09,0,0,1,1.08-.77A1,1,0,0,1,291.32,38.13Z"/></g></g></svg>